<svg xmlns="http://www.w3.org/2000/svg" width="1200" height="360" viewBox="0 0 1200 360" role="img" aria-labelledby="title desc">
  <title id="title">legal-text-mcp-de banner</title>
  <desc id="desc">Retro technical banner showing German legal text sources flowing through normalization, citation resolution, and JSON output.</desc>
  <defs>
    <linearGradient id="bg" x1="0" x2="1" y1="0" y2="1">
      <stop offset="0" stop-color="#06070b"/>
      <stop offset="0.48" stop-color="#101018"/>
      <stop offset="1" stop-color="#050609"/>
    </linearGradient>
    <linearGradient id="gold" x1="0" x2="0" y1="0" y2="1">
      <stop offset="0" stop-color="#ffe66d"/>
      <stop offset="0.58" stop-color="#ffbd21"/>
      <stop offset="1" stop-color="#d86d18"/>
    </linearGradient>
    <linearGradient id="cyan" x1="0" x2="1" y1="0" y2="0">
      <stop offset="0" stop-color="#8df4ff"/>
      <stop offset="1" stop-color="#25a9ff"/>
    </linearGradient>
    <filter id="softGlow" x="-20%" y="-30%" width="140%" height="160%">
      <feGaussianBlur stdDeviation="4" result="blur"/>
      <feMerge>
        <feMergeNode in="blur"/>
        <feMergeNode in="SourceGraphic"/>
      </feMerge>
    </filter>
    <pattern id="grid" width="28" height="28" patternUnits="userSpaceOnUse">
      <path d="M28 0H0v28" fill="none" stroke="#263044" stroke-width="1" opacity="0.38"/>
    </pattern>
    <style>
      .word { font-family: "Courier New", "IBM Plex Mono", monospace; font-size: 64px; font-weight: 900; letter-spacing: 0; }
      .subword { font-family: "Courier New", "IBM Plex Mono", monospace; font-size: 50px; font-weight: 900; letter-spacing: 2px; }
      .mono { font-family: "Courier New", monospace; font-weight: 700; }
      .label { font-size: 17px; fill: #e8eefc; }
      .tiny { font-size: 12px; fill: #9fb2c8; }
      .chip { fill: #111827; stroke: #36546f; stroke-width: 2; }
      .wire { fill: none; stroke: #36d9ff; stroke-width: 3; stroke-linecap: square; stroke-linejoin: round; }
    </style>
  </defs>

  <rect width="1200" height="360" rx="0" fill="url(#bg)"/>
  <rect width="1200" height="360" fill="url(#grid)" opacity="0.62"/>
  <path d="M0 284h1200" stroke="#2c1f13" stroke-width="34" opacity="0.52"/>
  <path d="M0 288h1200" stroke="#ed7d1e" stroke-width="2" opacity="0.75"/>
  <path d="M0 76h1200" stroke="#1b6b82" stroke-width="2" opacity="0.6"/>

  <g opacity="0.55">
    <path d="M70 64h150M70 296h150M978 64h152M978 296h152" stroke="#ffcc3d" stroke-width="5"/>
    <path d="M70 64v42M220 254v42M1130 64v42M978 254v42" stroke="#ffcc3d" stroke-width="5"/>
  </g>

  <g transform="translate(72 82)">
    <path d="M38 21h148l18 20v166H38z" fill="#151923" stroke="#5e6f89" stroke-width="3"/>
    <path d="M64 0h148l18 20v166H64z" fill="#0f131c" stroke="#88a0bf" stroke-width="3"/>
    <path d="M212 0v22h18" fill="none" stroke="#88a0bf" stroke-width="3"/>
    <text x="88" y="53" class="mono label">SOURCE</text>
    <text x="84" y="82" class="mono tiny">gesetze-im-internet.de</text>
    <text x="84" y="110" class="mono tiny">EUR-Lex / DSGVO</text>
    <rect x="88" y="132" width="110" height="24" rx="3" fill="#1d2938" stroke="#45ccff"/>
    <text x="100" y="149" class="mono tiny" fill="#c7f7ff">hash + stand</text>
    <text x="18" y="185" class="mono" font-size="96" fill="#ffbd21" opacity="0.9">§</text>
  </g>

  <g transform="translate(328 57)">
    <text x="10" y="104" class="word" fill="#1b1006" stroke="#6b2c0d" stroke-width="12">LEGAL</text>
    <text x="250" y="104" class="word" fill="#1b1006" stroke="#6b2c0d" stroke-width="12">TEXT</text>
    <text x="5" y="96" class="word" fill="#111827" stroke="#121826" stroke-width="11">LEGAL</text>
    <text x="245" y="96" class="word" fill="#111827" stroke="#121826" stroke-width="11">TEXT</text>
    <text x="0" y="88" class="word" fill="url(#gold)" stroke="#ffdf57" stroke-width="2">LEGAL</text>
    <text x="240" y="88" class="word" fill="url(#gold)" stroke="#ffdf57" stroke-width="2">TEXT</text>
    <text x="100" y="178" class="subword" fill="#071116" stroke="#13283a" stroke-width="10">MCP.DE</text>
    <text x="94" y="170" class="subword" fill="url(#cyan)" stroke="#b7fbff" stroke-width="1.5" filter="url(#softGlow)">MCP.DE</text>
    <text x="34" y="220" class="mono tiny" fill="#f2d48d">load -> normalize -> search -> cite -> JSON</text>
  </g>

  <g transform="translate(850 73)">
    <path class="wire" d="M-48 88H22"/>
    <rect x="22" y="38" width="282" height="190" rx="10" fill="#0c111a" stroke="#334155" stroke-width="3"/>
    <text x="47" y="72" class="mono label">CITATION RESOLVER</text>
    <g transform="translate(48 95)">
      <rect class="chip" x="0" y="0" width="67" height="30" rx="5"/>
      <text x="16" y="20" class="mono tiny" fill="#ffe66d">BGB</text>
      <rect class="chip" x="78" y="0" width="67" height="30" rx="5"/>
      <text x="96" y="20" class="mono tiny" fill="#ffe66d">§ 312</text>
      <rect class="chip" x="156" y="0" width="76" height="30" rx="5"/>
      <text x="171" y="20" class="mono tiny" fill="#ffe66d">Abs. 2</text>
      <path d="M33 44v24h160v22" class="wire"/>
      <rect x="31" y="84" width="172" height="50" rx="6" fill="#121c27" stroke="#25a9ff" stroke-width="2"/>
      <text x="52" y="105" class="mono tiny" fill="#c8f8ff">{ canonical_id }</text>
      <text x="52" y="124" class="mono tiny" fill="#c8f8ff">{ source_url }</text>
    </g>
  </g>

  <g opacity="0.9">
    <circle cx="287" cy="169" r="5" fill="#36d9ff"/>
    <circle cx="804" cy="169" r="5" fill="#36d9ff"/>
    <path d="M292 169h507" stroke="#36d9ff" stroke-width="3" stroke-dasharray="12 10"/>
  </g>

  <!-- license badge -->
  <g transform="translate(960 304)">
    <rect x="0" y="0" width="58" height="22" rx="3" fill="#374151"/>
    <text x="5" y="15" class="mono" font-size="10" fill="#d1d5db">license</text>
    <rect x="58" y="0" width="82" height="22" rx="3" fill="#16A34A"/>
    <text x="66" y="15" class="mono" font-size="10" fill="#ffffff">Apache 2.0</text>
  </g>
</svg>
